<svg width="70" height="26" viewBox="0 0 70 26" fill="none" xmlns="http://www.w3.org/2000/svg">
<path d="M2.34521 6.61035H3.72265C4.22623 6.61035 4.68115 6.53841 5.0874 6.39453C5.49365 6.25065 5.84065 6.04964 6.12841 5.7915C6.41194 5.5376 6.62988 5.23503 6.78222 4.88379C6.9388 4.53255 7.01709 4.14958 7.01709 3.73486C7.01709 3.29053 6.9388 2.88639 6.78222 2.52246C6.62988 2.15853 6.41194 1.84538 6.12841 1.58301C5.84065 1.32487 5.49365 1.12386 5.0874 0.97998C4.68115 0.831868 4.22623 0.757812 3.72265 0.757812H0.56152V10H2.34521V6.61035ZM2.34521 5.16309V2.20508H3.72265C3.97656 2.20508 4.19661 2.24528 4.38281 2.32568C4.56901 2.40609 4.72558 2.51611 4.85254 2.65576C4.97526 2.79541 5.06624 2.95833 5.12548 3.14453C5.18896 3.33073 5.2207 3.53174 5.2207 3.74756C5.2207 3.93376 5.18896 4.11361 5.12548 4.28711C5.06624 4.45638 4.97526 4.60661 4.85254 4.73779C4.72558 4.86898 4.56901 4.97266 4.38281 5.04883C4.19661 5.125 3.97656 5.16309 3.72265 5.16309H2.34521ZM11.6509 10.127C12.3153 10.127 12.8908 9.99788 13.3774 9.73975C13.8641 9.48161 14.2196 9.19385 14.4438 8.87646L13.5615 7.92432C13.3584 8.18669 13.0939 8.38346 12.7681 8.51465C12.4422 8.64583 12.1058 8.71143 11.7588 8.71143C11.5133 8.71143 11.2869 8.67334 11.0796 8.59717C10.8722 8.521 10.6881 8.41309 10.5273 8.27344C10.3708 8.13802 10.2459 7.98779 10.1528 7.82275C10.0597 7.65348 9.98356 7.43132 9.92431 7.15625V7.13721H14.5835V6.38818C14.5835 5.8846 14.5137 5.42546 14.374 5.01074C14.2344 4.5918 14.0312 4.23421 13.7646 3.93799C13.4938 3.64176 13.1637 3.41325 12.7744 3.25244C12.3893 3.0874 11.9492 3.00488 11.4541 3.00488C10.9759 3.00488 10.5337 3.09163 10.1274 3.26514C9.72119 3.43864 9.36995 3.68197 9.07373 3.99512C8.7775 4.30827 8.54687 4.68278 8.38183 5.11865C8.21679 5.55029 8.13427 6.02848 8.13427 6.55322V6.80713C8.13427 7.26839 8.21679 7.70215 8.38183 8.1084C8.5511 8.51042 8.7902 8.85954 9.09912 9.15576C9.40804 9.45622 9.77832 9.6932 10.21 9.8667C10.6416 10.0402 11.1219 10.127 11.6509 10.127ZM11.4414 4.43311C11.6657 4.43311 11.8625 4.46908 12.0317 4.54102C12.2052 4.60872 12.3512 4.70182 12.4697 4.82031C12.5882 4.94303 12.6813 5.08691 12.749 5.25195C12.8167 5.41699 12.8506 5.59261 12.8506 5.77881V5.91846H9.95605C9.99837 5.69417 10.0618 5.49105 10.1465 5.30908C10.2311 5.12712 10.3369 4.97054 10.4639 4.83936C10.5866 4.70817 10.7305 4.60872 10.8955 4.54102C11.0605 4.46908 11.2425 4.43311 11.4414 4.43311ZM21.0581 3.00488C20.5968 3.00488 20.1715 3.11702 19.7822 3.34131C19.3929 3.56136 19.0586 3.86605 18.7793 4.25537L18.7666 4.10303L18.6968 3.13184H17.0527V10H18.8174V5.87402C18.8978 5.67936 18.9993 5.51009 19.1221 5.36621C19.2448 5.22233 19.3929 5.10384 19.5664 5.01074C19.7103 4.93034 19.8732 4.87109 20.0552 4.83301C20.2414 4.79069 20.4487 4.76953 20.6772 4.76953C20.8973 4.76953 21.1279 4.78434 21.3691 4.81396C21.6146 4.83936 21.8537 4.87956 22.0864 4.93457L22.3467 3.17627C22.207 3.13395 22.0229 3.09587 21.7944 3.06201C21.5701 3.02393 21.3247 3.00488 21.0581 3.00488ZM25.0317 3.13184H23.5146V10H25.1206V4.8584C25.1418 4.80339 25.165 4.7526 25.1904 4.70605C25.2158 4.65951 25.2454 4.6193 25.2793 4.58545C25.3258 4.5389 25.3787 4.50293 25.438 4.47754C25.4972 4.45215 25.5649 4.43945 25.6411 4.43945C25.7088 4.43945 25.7723 4.45003 25.8315 4.47119C25.8908 4.48812 25.9437 4.51986 25.9902 4.56641C26.0325 4.61296 26.0664 4.67855 26.0918 4.76318C26.1172 4.84782 26.1299 4.95573 26.1299 5.08691V10H27.6851V4.93457C27.6851 4.88379 27.6851 4.84359 27.6851 4.81396C27.6851 4.78434 27.6851 4.7653 27.6851 4.75684C27.7062 4.71029 27.7316 4.67008 27.7612 4.63623C27.7908 4.59814 27.8247 4.56429 27.8628 4.53467C27.9093 4.50505 27.958 4.48177 28.0088 4.46484C28.0638 4.44792 28.1252 4.43945 28.1929 4.43945C28.2563 4.43945 28.3177 4.45003 28.3769 4.47119C28.4404 4.48812 28.4954 4.51986 28.542 4.56641C28.5885 4.61719 28.6245 4.6849 28.6499 4.76953C28.6795 4.85417 28.6943 4.96208 28.6943 5.09326V10H30.3003V5.09961C30.3003 4.71875 30.2622 4.39714 30.186 4.13477C30.1141 3.86816 30.0125 3.65023 29.8813 3.48096C29.7459 3.31592 29.5872 3.19531 29.4053 3.11914C29.2275 3.04297 29.035 3.00488 28.8276 3.00488C28.6626 3.00488 28.5103 3.02604 28.3706 3.06836C28.231 3.11068 28.1061 3.16992 27.9961 3.24609C27.9072 3.30534 27.8247 3.37728 27.7485 3.46191C27.6766 3.54232 27.611 3.6333 27.5518 3.73486C27.5137 3.62907 27.4671 3.53597 27.4121 3.45557C27.3613 3.37093 27.3 3.29899 27.228 3.23975C27.1349 3.15934 27.0249 3.1001 26.8979 3.06201C26.771 3.02393 26.6271 3.00488 26.4663 3.00488C26.1362 3.00488 25.8548 3.09163 25.6221 3.26514C25.3936 3.43441 25.2137 3.66715 25.0825 3.96338L25.0317 3.13184ZM36.0322 10H37.8223V9.89209C37.7334 9.71859 37.6657 9.51123 37.6191 9.27002C37.5726 9.02881 37.5493 8.72412 37.5493 8.35596V5.41064C37.5493 5.01286 37.4753 4.66374 37.3271 4.36328C37.179 4.05859 36.9738 3.8068 36.7114 3.60791C36.4491 3.40902 36.138 3.25879 35.7783 3.15723C35.4228 3.05566 35.0378 3.00488 34.623 3.00488C34.1618 3.00488 33.7513 3.06413 33.3916 3.18262C33.0361 3.29688 32.7357 3.45345 32.4902 3.65234C32.2406 3.85124 32.0501 4.08187 31.9189 4.34424C31.792 4.60661 31.7285 4.88379 31.7285 5.17578H33.4932C33.4932 5.05306 33.5101 4.94092 33.5439 4.83936C33.582 4.73779 33.6392 4.65104 33.7153 4.5791C33.8 4.4987 33.91 4.43734 34.0454 4.39502C34.1808 4.34847 34.3416 4.3252 34.5278 4.3252C34.7394 4.3252 34.9235 4.3527 35.0801 4.40771C35.2409 4.4585 35.3742 4.53255 35.48 4.62988C35.5815 4.72298 35.6577 4.83512 35.7085 4.96631C35.7593 5.09326 35.7847 5.23714 35.7847 5.39795V5.8042H34.8008C34.293 5.8042 33.8423 5.85075 33.4487 5.94385C33.0594 6.03271 32.7314 6.1639 32.4648 6.3374C32.1686 6.52783 31.9464 6.77116 31.7983 7.06738C31.6502 7.35938 31.5762 7.6958 31.5762 8.07666C31.5762 8.37288 31.6354 8.64795 31.7539 8.90186C31.8724 9.15153 32.0374 9.36735 32.249 9.54932C32.4606 9.73128 32.7124 9.87305 33.0044 9.97461C33.3006 10.0762 33.6243 10.127 33.9756 10.127C34.1914 10.127 34.3924 10.1058 34.5786 10.0635C34.7648 10.0254 34.9362 9.97038 35.0928 9.89844C35.2451 9.83073 35.3848 9.75033 35.5117 9.65723C35.6387 9.56413 35.7508 9.46468 35.8481 9.35889C35.8693 9.48161 35.8947 9.59798 35.9243 9.70801C35.9539 9.81803 35.9899 9.91536 36.0322 10ZM34.3501 8.76221C34.1851 8.76221 34.0391 8.74316 33.9121 8.70508C33.7894 8.66276 33.6857 8.60775 33.6011 8.54004C33.5164 8.4681 33.4508 8.38135 33.4043 8.27979C33.362 8.17399 33.3408 8.05973 33.3408 7.93701C33.3408 7.78044 33.3704 7.63656 33.4297 7.50537C33.4889 7.36995 33.5799 7.25358 33.7026 7.15625C33.8254 7.06315 33.984 6.99121 34.1787 6.94043C34.3734 6.88542 34.6082 6.85791 34.8833 6.85791H35.7847V8.03857C35.7339 8.12744 35.6641 8.21631 35.5752 8.30518C35.4863 8.38981 35.3805 8.46598 35.2578 8.53369C35.1351 8.6014 34.9976 8.65641 34.8452 8.69873C34.6929 8.74105 34.5278 8.76221 34.3501 8.76221ZM39.5488 10H41.3198V5.11865C41.3791 5.02555 41.4447 4.94092 41.5166 4.86475C41.5885 4.78857 41.6689 4.72298 41.7578 4.66797C41.8678 4.5918 41.9927 4.53467 42.1323 4.49658C42.2762 4.4585 42.4328 4.43945 42.602 4.43945C42.8052 4.43945 42.9871 4.46061 43.1479 4.50293C43.3088 4.54102 43.4463 4.61084 43.5605 4.7124C43.6748 4.81396 43.7616 4.95361 43.8208 5.13135C43.8843 5.30485 43.916 5.52702 43.916 5.79785V10H45.6807V5.77246C45.6807 5.27311 45.6214 4.84993 45.5029 4.50293C45.3887 4.15169 45.2279 3.86393 45.0205 3.63965C44.8089 3.4196 44.5592 3.25879 44.2715 3.15723C43.9837 3.05566 43.6663 3.00488 43.3193 3.00488C43.0485 3.00488 42.7925 3.04297 42.5513 3.11914C42.3101 3.19531 42.0879 3.30534 41.8848 3.44922C41.7663 3.53385 41.6541 3.62907 41.5483 3.73486C41.4425 3.84066 41.3452 3.95703 41.2563 4.08398L41.1484 3.13184H39.5488V10ZM50.689 10.127C51.3533 10.127 51.9289 9.99788 52.4155 9.73975C52.9022 9.48161 53.2576 9.19385 53.4819 8.87646L52.5996 7.92432C52.3965 8.18669 52.132 8.38346 51.8061 8.51465C51.4803 8.64583 51.1439 8.71143 50.7969 8.71143C50.5514 8.71143 50.325 8.67334 50.1177 8.59717C49.9103 8.521 49.7262 8.41309 49.5654 8.27344C49.4089 8.13802 49.284 7.98779 49.1909 7.82275C49.0978 7.65348 49.0216 7.43132 48.9624 7.15625V7.13721H53.6216V6.38818C53.6216 5.8846 53.5518 5.42546 53.4121 5.01074C53.2725 4.5918 53.0693 4.23421 52.8027 3.93799C52.5319 3.64176 52.2018 3.41325 51.8125 3.25244C51.4274 3.0874 50.9873 3.00488 50.4922 3.00488C50.014 3.00488 49.5718 3.09163 49.1655 3.26514C48.7593 3.43864 48.408 3.68197 48.1118 3.99512C47.8156 4.30827 47.585 4.68278 47.4199 5.11865C47.2549 5.55029 47.1724 6.02848 47.1724 6.55322V6.80713C47.1724 7.26839 47.2549 7.70215 47.4199 8.1084C47.5892 8.51042 47.8283 8.85954 48.1372 9.15576C48.4461 9.45622 48.8164 9.6932 49.248 9.8667C49.6797 10.0402 50.16 10.127 50.689 10.127ZM50.4795 4.43311C50.7038 4.43311 50.9005 4.46908 51.0698 4.54102C51.2433 4.60872 51.3893 4.70182 51.5078 4.82031C51.6263 4.94303 51.7194 5.08691 51.7871 5.25195C51.8548 5.41699 51.8887 5.59261 51.8887 5.77881V5.91846H48.9941C49.0365 5.69417 49.0999 5.49105 49.1846 5.30908C49.2692 5.12712 49.375 4.97054 49.5019 4.83936C49.6247 4.70817 49.7686 4.60872 49.9336 4.54102C50.0986 4.46908 50.2806 4.43311 50.4795 4.43311ZM55.1641 10H56.9351V5.11865C56.9943 5.02555 57.0599 4.94092 57.1318 4.86475C57.2038 4.78857 57.2842 4.72298 57.373 4.66797C57.4831 4.5918 57.6079 4.53467 57.7476 4.49658C57.8914 4.4585 58.048 4.43945 58.2173 4.43945C58.4204 4.43945 58.6024 4.46061 58.7632 4.50293C58.924 4.54102 59.0615 4.61084 59.1758 4.7124C59.29 4.81396 59.3768 4.95361 59.436 5.13135C59.4995 5.30485 59.5312 5.52702 59.5312 5.79785V10H61.2959V5.77246C61.2959 5.27311 61.2366 4.84993 61.1182 4.50293C61.0039 4.15169 60.8431 3.86393 60.6357 3.63965C60.4241 3.4196 60.1745 3.25879 59.8867 3.15723C59.599 3.05566 59.2816 3.00488 58.9346 3.00488C58.6637 3.00488 58.4077 3.04297 58.1665 3.11914C57.9253 3.19531 57.7031 3.30534 57.5 3.44922C57.3815 3.53385 57.2694 3.62907 57.1636 3.73486C57.0578 3.84066 56.9604 3.95703 56.8716 4.08398L56.7637 3.13184H55.1641V10ZM66.209 1.44971H64.4443V3.13184H62.8765V4.43311H64.4443V7.55615C64.4443 8.00895 64.5036 8.39827 64.6221 8.72412C64.7406 9.04574 64.9098 9.31022 65.1299 9.51758C65.3457 9.72917 65.606 9.88574 65.9106 9.9873C66.2196 10.0846 66.5623 10.1333 66.939 10.1333C67.1336 10.1333 67.3304 10.1227 67.5293 10.1016C67.7324 10.0846 67.9271 10.0592 68.1133 10.0254C68.2995 9.99154 68.4751 9.94922 68.6401 9.89844C68.8052 9.84342 68.9491 9.77995 69.0718 9.70801L68.9004 8.49561C68.82 8.51676 68.7227 8.53792 68.6084 8.55908C68.4984 8.58024 68.3799 8.59928 68.2529 8.61621C68.1217 8.63737 67.9842 8.6543 67.8403 8.66699C67.7007 8.67969 67.5632 8.68604 67.4277 8.68604C67.2415 8.68604 67.0723 8.66488 66.9199 8.62256C66.7718 8.58024 66.6449 8.5083 66.5391 8.40674C66.4333 8.30941 66.3507 8.17822 66.2915 8.01318C66.2365 7.84391 66.209 7.63444 66.209 7.38477V4.43311H68.7734V3.13184H66.209V1.44971ZM0.204147 21.8522V21.9722C0.204147 22.4254 0.268893 22.8443 0.398385 23.229C0.527877 23.6099 0.718307 23.9412 0.969674 24.223C1.21723 24.5049 1.52192 24.7258 1.88374 24.8857C2.24936 25.0419 2.6645 25.12 3.12915 25.12C3.58999 25.12 4.00131 25.0419 4.36313 24.8857C4.72495 24.7258 5.02963 24.5049 5.27719 24.223C5.52475 23.9412 5.71328 23.6099 5.84277 23.229C5.97226 22.8443 6.03701 22.4254 6.03701 21.9722V21.8522C6.03701 21.4028 5.97226 20.9876 5.84277 20.6068C5.71328 20.2221 5.52475 19.8889 5.27719 19.607C5.02583 19.3252 4.71923 19.1043 4.35742 18.9443C3.9956 18.7844 3.58237 18.7044 3.11772 18.7044C2.65307 18.7044 2.23984 18.7844 1.87802 18.9443C1.52002 19.1043 1.21723 19.3252 0.969674 19.607C0.718307 19.8889 0.527877 20.2221 0.398385 20.6068C0.268893 20.9876 0.204147 21.4028 0.204147 21.8522ZM1.79233 21.9722V21.8522C1.79233 21.6008 1.81709 21.3628 1.8666 21.1381C1.91611 20.9134 1.99419 20.7153 2.10083 20.5439C2.20747 20.3726 2.34458 20.2374 2.51215 20.1383C2.67973 20.0393 2.88159 19.9898 3.11772 19.9898C3.35766 19.9898 3.56142 20.0393 3.729 20.1383C3.89658 20.2374 4.03369 20.3726 4.14033 20.5439C4.24316 20.7153 4.31933 20.9134 4.36884 21.1381C4.41836 21.3628 4.44311 21.6008 4.44311 21.8522V21.9722C4.44311 22.2312 4.41836 22.4749 4.36884 22.7034C4.31933 22.9281 4.24316 23.1243 4.14033 23.2918C4.03369 23.4632 3.89658 23.5984 3.729 23.6975C3.56142 23.7965 3.36147 23.846 3.12915 23.846C2.88921 23.846 2.68354 23.7965 2.51215 23.6975C2.34458 23.5984 2.20747 23.4632 2.10083 23.2918C1.99419 23.1243 1.91611 22.9281 1.8666 22.7034C1.81709 22.4749 1.79233 22.2312 1.79233 21.9722ZM7.44809 25H9.04199V20.6068C9.09531 20.523 9.15434 20.4468 9.21909 20.3783C9.28383 20.3097 9.3562 20.2507 9.43618 20.2012C9.5352 20.1326 9.64755 20.0812 9.77324 20.0469C9.90273 20.0126 10.0436 19.9955 10.196 19.9955C10.3788 19.9955 10.5426 20.0146 10.6873 20.0526C10.832 20.0869 10.9558 20.1498 11.0586 20.2412C11.1615 20.3326 11.2395 20.4583 11.2929 20.6182C11.35 20.7744 11.3786 20.9743 11.3786 21.2181V25H12.9667V21.1952C12.9667 20.7458 12.9134 20.3649 12.8068 20.0526C12.704 19.7365 12.5592 19.4775 12.3726 19.2757C12.1822 19.0776 11.9575 18.9329 11.6985 18.8415C11.4395 18.7501 11.1539 18.7044 10.8415 18.7044C10.5978 18.7044 10.3674 18.7387 10.1503 18.8072C9.9332 18.8758 9.73325 18.9748 9.55044 19.1043C9.44379 19.1805 9.34287 19.2662 9.24765 19.3614C9.15244 19.4566 9.06484 19.5613 8.98486 19.6756L8.88774 18.8187H7.44809V25ZM25.5351 23.2633L26.0207 25H27.7117L25.0381 16.682H23.5813L20.8562 25H22.5473L23.0386 23.2633H25.5351ZM23.4328 21.8979L24.3068 18.8358L25.1581 21.8979H23.4328ZM32.9676 18.7044C32.5524 18.7044 32.1697 18.8053 31.8193 19.0072C31.4689 19.2052 31.168 19.4794 30.9166 19.8298L30.9052 19.6927L30.8424 18.8187H29.3627V25H30.9509V21.2866C31.0233 21.1114 31.1147 20.9591 31.2251 20.8296C31.3356 20.7001 31.4689 20.5935 31.625 20.5097C31.7545 20.4373 31.9012 20.384 32.0649 20.3497C32.2325 20.3116 32.4191 20.2926 32.6248 20.2926C32.8228 20.2926 33.0304 20.3059 33.2475 20.3326C33.4684 20.3554 33.6836 20.3916 33.8931 20.4411L34.1273 18.8586C34.0016 18.8206 33.8359 18.7863 33.6303 18.7558C33.4284 18.7215 33.2075 18.7044 32.9676 18.7044ZM36.0125 25H37.4065L38.0635 21.6979L38.1892 21.0695L38.3206 21.6979L39.0004 25H40.3943L41.5026 18.8187H40.0458L39.5888 22.4635L39.5088 23.0633L39.4003 22.4749L38.7319 18.8187H37.6693L37.0009 22.492L36.8923 23.0805L36.8181 22.492L36.3553 18.8187H34.9042L36.0125 25ZM45.5816 25.1143C46.1796 25.1143 46.6976 24.9981 47.1355 24.7658C47.5735 24.5334 47.8935 24.2745 48.0953 23.9888L47.3012 23.1319C47.1184 23.368 46.8804 23.5451 46.5871 23.6632C46.2938 23.7813 45.9911 23.8403 45.6788 23.8403C45.4579 23.8403 45.2541 23.806 45.0675 23.7375C44.8809 23.6689 44.7152 23.5718 44.5705 23.4461C44.4295 23.3242 44.3172 23.189 44.2334 23.0405C44.1496 22.8881 44.0811 22.6882 44.0277 22.4406V22.4235H48.221V21.7494C48.221 21.2961 48.1582 20.8829 48.0325 20.5097C47.9068 20.1326 47.724 19.8108 47.484 19.5442C47.2403 19.2776 46.9432 19.0719 46.5928 18.9272C46.2462 18.7787 45.8501 18.7044 45.4045 18.7044C44.9742 18.7044 44.5762 18.7825 44.2105 18.9386C43.8449 19.0948 43.5288 19.3138 43.2622 19.5956C42.9956 19.8774 42.788 20.2145 42.6395 20.6068C42.491 20.9953 42.4167 21.4256 42.4167 21.8979V22.1264C42.4167 22.5416 42.491 22.9319 42.6395 23.2976C42.7918 23.6594 43.007 23.9736 43.2851 24.2402C43.5631 24.5106 43.8963 24.7239 44.2848 24.88C44.6733 25.0362 45.1056 25.1143 45.5816 25.1143ZM45.3931 19.9898C45.595 19.9898 45.7721 20.0222 45.9244 20.0869C46.0806 20.1479 46.212 20.2316 46.3186 20.3383C46.4252 20.4487 46.509 20.5782 46.57 20.7268C46.6309 20.8753 46.6614 21.0333 46.6614 21.2009V21.3266H44.0563C44.0944 21.1248 44.1515 20.9419 44.2277 20.7782C44.3039 20.6144 44.3991 20.4735 44.5133 20.3554C44.6238 20.2374 44.7533 20.1479 44.9018 20.0869C45.0503 20.0222 45.2141 19.9898 45.3931 19.9898ZM53.4711 25H55.0822V24.9029C55.0022 24.7467 54.9413 24.5601 54.8994 24.343C54.8575 24.1259 54.8365 23.8517 54.8365 23.5204V20.8696C54.8365 20.5116 54.7699 20.1974 54.6366 19.927C54.5033 19.6527 54.3186 19.4261 54.0824 19.2471C53.8463 19.0681 53.5664 18.9329 53.2426 18.8415C52.9227 18.7501 52.5761 18.7044 52.2029 18.7044C51.7877 18.7044 51.4183 18.7577 51.0946 18.8644C50.7747 18.9672 50.5042 19.1081 50.2833 19.2871C50.0586 19.4661 49.8873 19.6737 49.7692 19.9098C49.6549 20.1459 49.5978 20.3954 49.5978 20.6582H51.186C51.186 20.5478 51.2012 20.4468 51.2317 20.3554C51.266 20.264 51.3174 20.1859 51.3859 20.1212C51.4621 20.0488 51.5611 19.9936 51.683 19.9555C51.8049 19.9136 51.9496 19.8927 52.1172 19.8927C52.3076 19.8927 52.4733 19.9174 52.6142 19.9669C52.7589 20.0126 52.8789 20.0793 52.9741 20.1669C53.0655 20.2507 53.1341 20.3516 53.1798 20.4697C53.2255 20.5839 53.2483 20.7134 53.2483 20.8582V21.2238H52.3628C51.9058 21.2238 51.5002 21.2657 51.146 21.3495C50.7956 21.4294 50.5004 21.5475 50.2605 21.7037C49.9939 21.875 49.7939 22.094 49.6606 22.3606C49.5273 22.6234 49.4607 22.9262 49.4607 23.269C49.4607 23.5356 49.514 23.7832 49.6207 24.0117C49.7273 24.2364 49.8758 24.4306 50.0663 24.5944C50.2567 24.7582 50.4833 24.8857 50.7461 24.9771C51.0127 25.0686 51.304 25.1143 51.6202 25.1143C51.8144 25.1143 51.9953 25.0952 52.1629 25.0571C52.3305 25.0229 52.4847 24.9733 52.6256 24.9086C52.7627 24.8477 52.8884 24.7753 53.0027 24.6915C53.1169 24.6077 53.2179 24.5182 53.3055 24.423C53.3245 24.5334 53.3474 24.6382 53.374 24.7372C53.4007 24.8362 53.4331 24.9238 53.4711 25ZM51.9572 23.886C51.8087 23.886 51.6773 23.8688 51.563 23.8346C51.4526 23.7965 51.3593 23.747 51.2831 23.686C51.2069 23.6213 51.1479 23.5432 51.106 23.4518C51.0679 23.3566 51.0489 23.2538 51.0489 23.1433C51.0489 23.0024 51.0755 22.8729 51.1289 22.7548C51.1822 22.633 51.2641 22.5282 51.3745 22.4406C51.485 22.3568 51.6278 22.2921 51.803 22.2464C51.9782 22.1969 52.1895 22.1721 52.4371 22.1721H53.2483V23.2347C53.2026 23.3147 53.1398 23.3947 53.0598 23.4747C52.9798 23.5508 52.8846 23.6194 52.7742 23.6803C52.6637 23.7413 52.5399 23.7908 52.4028 23.8289C52.2657 23.8669 52.1172 23.886 51.9572 23.886ZM58.6013 25H60.0924L62.4404 18.8187H60.7836L59.4297 23.1776L59.344 23.6118L59.2583 23.1776L57.8986 18.8187H56.2419L58.6013 25ZM66.6622 25.1143C67.2602 25.1143 67.7781 24.9981 68.2161 24.7658C68.6541 24.5334 68.974 24.2745 69.1759 23.9888L68.3818 23.1319C68.199 23.368 67.9609 23.5451 67.6677 23.6632C67.3744 23.7813 67.0716 23.8403 66.7593 23.8403C66.5384 23.8403 66.3347 23.806 66.148 23.7375C65.9614 23.6689 65.7958 23.5718 65.651 23.4461C65.5101 23.3242 65.3978 23.189 65.314 23.0405C65.2302 22.8881 65.1616 22.6882 65.1083 22.4406V22.4235H69.3016V21.7494C69.3016 21.2961 69.2387 20.8829 69.113 20.5097C68.9874 20.1326 68.8045 19.8108 68.5646 19.5442C68.3208 19.2776 68.0238 19.0719 67.6734 18.9272C67.3268 18.7787 66.9307 18.7044 66.4851 18.7044C66.0547 18.7044 65.6567 18.7825 65.2911 18.9386C64.9255 19.0948 64.6094 19.3138 64.3428 19.5956C64.0762 19.8774 63.8686 20.2145 63.7201 20.6068C63.5715 20.9953 63.4973 21.4256 63.4973 21.8979V22.1264C63.4973 22.5416 63.5715 22.9319 63.7201 23.2976C63.8724 23.6594 64.0876 23.9736 64.3656 24.2402C64.6437 24.5106 64.9769 24.7239 65.3654 24.88C65.7539 25.0362 66.1861 25.1143 66.6622 25.1143ZM66.4737 19.9898C66.6755 19.9898 66.8526 20.0222 67.005 20.0869C67.1611 20.1479 67.2925 20.2316 67.3992 20.3383C67.5058 20.4487 67.5896 20.5782 67.6505 20.7268C67.7115 20.8753 67.7419 21.0333 67.7419 21.2009V21.3266H65.1369C65.175 21.1248 65.2321 20.9419 65.3083 20.7782C65.3844 20.6144 65.4796 20.4735 65.5939 20.3554C65.7043 20.2374 65.8338 20.1479 65.9824 20.0869C66.1309 20.0222 66.2947 19.9898 66.4737 19.9898Z" fill="white"/>
</svg>
